<svg width="24" height="24" viewBox="0 0 24 24" fill="none" xmlns="http://www.w3.org/2000/svg">
<g clip-path="url(#clip0_153_15)">
<path d="M10.5 16.5H13.5V19.5H10.5V16.5ZM16.5 6C17.3284 6 18 6.67158 18 7.5V12L13.5 15H10.5V13.5L15 10.5V9H7.5V6H16.5ZM12 2.25C9.39567 2.25 6.94725 3.26419 5.10572 5.10572C3.26419 6.94725 2.25 9.39567 2.25 12C2.25 14.6043 3.26419 17.0527 5.10572 18.8943C6.94725 20.7358 9.39567 21.75 12 21.75C14.6043 21.75 17.0527 20.7358 18.8943 18.8943C20.7358 17.0527 21.75 14.6043 21.75 12C21.75 9.39567 20.7358 6.94725 18.8943 5.10572C17.0527 3.26419 14.6043 2.25 12 2.25ZM12 0C18.6274 0 24 5.37258 24 12C24 18.6274 18.6274 24 12 24C5.37258 24 0 18.6274 0 12C0 5.37258 5.37258 0 12 0Z" fill="#7A0424" fill-opacity="0.9"/>
</g>
<defs>
<clipPath id="clip0_153_15">
<rect width="24" height="24" fill="white"/>
</clipPath>
</defs>
</svg>
