<svg width="24" height="24" viewBox="0 0 24 24" fill="none" xmlns="http://www.w3.org/2000/svg">
<g clip-path="url(#clip0_153_18)">
<path d="M18.0824 7.49997C18.5072 7.19809 18.9147 6.86209 19.2881 6.48869C20.071 5.70583 20.5947 4.74259 20.7626 3.77645C20.9468 2.71741 20.6766 1.73411 20.0213 1.0788C19.4986 0.556188 18.7906 0.279907 17.9737 0.279907C16.8105 0.279907 15.5849 0.838282 14.6114 1.81183C13.0533 3.36986 12.1451 5.52053 11.6565 7.05531C11.2946 5.51308 10.5735 3.43084 9.17166 2.02895C8.41945 1.2768 7.45805 0.890595 6.55027 0.890595C5.80837 0.890595 5.1023 1.1485 4.57542 1.67542C3.40388 2.84702 3.56217 4.90478 4.929 6.27161C5.41631 6.75892 5.98598 7.16369 6.5865 7.50002H1.5V13.5H3V24H21V13.5H22.5V7.49997H18.0824ZM15.8045 3.00508C16.4543 2.3553 17.2652 1.96741 17.9737 1.96741C18.2244 1.96741 18.5762 2.02024 18.828 2.27205C19.438 2.88208 19.0954 4.29489 18.0948 5.29544C17.0648 6.32542 15.6794 7.03375 14.4753 7.49997H13.2877C13.7229 6.15119 14.5078 4.30178 15.8045 3.00508ZM5.48283 3.77083C5.46638 3.55708 5.48166 3.15564 5.76867 2.86863C6.00877 2.62853 6.3262 2.57809 6.55027 2.57809C7.0485 2.57809 7.56905 2.81284 7.97836 3.22216C8.77223 4.01603 9.426 5.27931 9.86902 6.8755C9.88097 6.91863 9.89264 6.96152 9.90408 7.00408C9.86152 6.99269 9.81863 6.98102 9.7755 6.96902C8.17931 6.52595 6.91608 5.87219 6.1222 5.07831C5.75123 4.70739 5.51822 4.23081 5.48283 3.77083ZM10.5 22.5H4.5V12.75H10.5V22.5ZM10.5 12H3V8.99997H10.5V12ZM19.5 22.5H13.5V12.75H19.5V22.5ZM21 12H13.5V8.99997H21V12Z" fill="#7A0424" fill-opacity="0.9"/>
</g>
<defs>
<clipPath id="clip0_153_18">
<rect width="24" height="24" fill="white"/>
</clipPath>
</defs>
</svg>
