<svg width="145" height="123" viewBox="0 0 145 123" fill="none" xmlns="http://www.w3.org/2000/svg">
<path d="M83.2647 0C117.149 0 144.618 27.4225 144.618 61.25C144.618 95.0775 117.149 122.5 83.2647 122.5V109.375C96.1401 109.375 108.248 104.37 117.351 95.2787C126.453 86.1875 131.471 74.1038 131.471 61.25C131.471 48.3963 126.457 36.3081 117.351 27.2213C108.244 18.1344 96.1401 13.125 83.2647 13.125C70.3894 13.125 58.2809 18.13 49.1788 27.2213C42.1758 34.2125 37.5962 42.9756 35.852 52.5H61.3529L30.6765 87.5L0 52.5H22.5384C26.7937 22.82 52.356 0 83.2647 0ZM109.559 52.5V70H74.5V26.25H92.0294V52.5H109.559Z" fill="white" fill-opacity="0.1"/>
</svg>
