<svg width="141" height="141" viewBox="0 0 141 141" fill="none" xmlns="http://www.w3.org/2000/svg">
<g clip-path="url(#clip0_26_390)">
<path d="M141 61.6875H127.103C123.296 37.1447 103.855 17.7043 79.3125 13.8973V0H61.6875V13.8973C37.1447 17.7043 17.7043 37.1447 13.8973 61.6875H0V79.3125H13.8973C17.7043 103.855 37.1447 123.296 61.6875 127.103V141H79.3125V127.103C103.855 123.296 123.296 103.855 127.103 79.3125H141V61.6875ZM109.169 61.6875H95.4306C92.7736 54.1748 86.8252 48.222 79.3125 45.5694V31.8307C94.1175 35.2015 105.794 46.8825 109.169 61.6875ZM70.5 79.3125C65.6311 79.3125 61.6875 75.3689 61.6875 70.5C61.6875 65.6311 65.6311 61.6875 70.5 61.6875C75.3689 61.6875 79.3125 65.6311 79.3125 70.5C79.3125 75.3689 75.3689 79.3125 70.5 79.3125ZM61.6875 31.8307V45.5694C54.1748 48.2264 48.222 54.1748 45.5694 61.6875H31.8307C35.2015 46.8825 46.8825 35.2059 61.6875 31.8307ZM31.8307 79.3125H45.5694C48.2264 86.8252 54.1748 92.778 61.6875 95.4306V109.169C46.8825 105.798 35.2059 94.1175 31.8307 79.3125ZM79.3125 109.169V95.4306C86.8252 92.7736 92.778 86.8252 95.4306 79.3125H109.169C105.798 94.1175 94.1175 105.794 79.3125 109.169Z" fill="white" fill-opacity="0.1"/>
</g>
<defs>
<clipPath id="clip0_26_390">
<rect width="141" height="141" fill="white"/>
</clipPath>
</defs>
</svg>
