<svg width="140" height="140" viewBox="0 0 140 140" fill="none" xmlns="http://www.w3.org/2000/svg">
<g clip-path="url(#clip0_26_385)">
<path d="M38.75 42.5H56.25V60H38.75V42.5ZM65 42.5H82.5V60H65V42.5ZM91.25 42.5H108.75V60H91.25V42.5ZM12.5 95H30V112.5H12.5V95ZM38.75 95H56.25V112.5H38.75V95ZM65 95H82.5V112.5H65V95ZM38.75 68.75H56.25V86.25H38.75V68.75ZM65 68.75H82.5V86.25H65V68.75ZM91.25 68.75H108.75V86.25H91.25V68.75ZM12.5 68.75H30V86.25H12.5V68.75ZM108.75 -10V-1.25H91.25V-10H30V-1.25H12.5V-10H-5V130H126.25V-10H108.75ZM117.5 121.25H3.75V25H117.5V121.25Z" fill="white" fill-opacity="0.1"/>
</g>
<defs>
<clipPath id="clip0_26_385">
<rect width="140" height="140" fill="white"/>
</clipPath>
</defs>
</svg>
