<svg width="157" height="140" viewBox="0 0 157 140" fill="none" xmlns="http://www.w3.org/2000/svg">
<g clip-path="url(#clip0_26_395)">
<path d="M104.667 105.359V98.1443C114.274 92.7149 122.111 79.1699 122.111 65.6293C122.111 43.8811 122.111 26.2543 95.9445 26.2543C69.7778 26.2543 69.7778 43.8811 69.7778 65.6293C69.7778 79.1743 77.6147 92.7149 87.2223 98.1443V105.359C57.6365 107.787 34.8889 122.369 34.8889 140H157C157 122.369 134.252 107.782 104.667 105.359Z" fill="white" fill-opacity="0.1"/>
<path d="M44.5924 108.736C52.1284 103.793 61.5004 100.034 71.8188 97.7419C69.7691 95.3094 67.9069 92.5969 66.302 89.6744C62.1589 82.1231 59.9653 73.8063 59.9653 65.625C59.9653 53.8606 59.9653 42.7525 64.1345 33.6656C68.1816 24.8456 75.4647 19.3813 85.8354 17.3294C83.5284 6.87312 77.3923 0 61.0555 0C34.8889 0 34.8889 17.6269 34.8889 39.375C34.8889 52.92 42.7258 66.4606 52.3333 71.89V79.1044C22.7476 81.5325 0 96.1144 0 113.746H38.0245C40.0045 111.983 42.1937 110.303 44.5924 108.732V108.736Z" fill="white" fill-opacity="0.1"/>
</g>
<defs>
<clipPath id="clip0_26_395">
<rect width="157" height="140" fill="white"/>
</clipPath>
</defs>
</svg>
