<svg width="43" height="38" viewBox="0 0 43 38" fill="none" xmlns="http://www.w3.org/2000/svg">
<g clip-path="url(#clip0_1456_53)">
<path d="M28.6667 28.5974V26.6392C31.298 25.1655 33.4444 21.489 33.4444 17.8137C33.4444 11.9107 33.4444 7.12622 26.2778 7.12622C19.1111 7.12622 19.1111 11.9107 19.1111 17.8137C19.1111 21.4902 21.2575 25.1655 23.8889 26.6392V28.5974C15.7858 29.2565 9.55554 33.2144 9.55554 38H43C43 33.2144 36.7698 29.2553 28.6667 28.5974Z" fill="white" fill-opacity="0.2"/>
<path d="M12.2132 29.5141C14.2772 28.1723 16.8441 27.1522 19.6701 26.5299C19.1087 25.8697 18.5987 25.1334 18.1591 24.3402C17.0244 22.2906 16.4236 20.0331 16.4236 17.8125C16.4236 14.6193 16.4236 11.6042 17.5655 9.13781C18.6739 6.74381 20.6687 5.26062 23.5091 4.70369C22.8772 1.86556 21.1966 0 16.7222 0C9.55556 0 9.55556 4.78444 9.55556 10.6875C9.55556 14.364 11.702 18.0393 14.3333 19.513V21.4712C6.23022 22.1302 0 26.0882 0 30.8738H10.4144C10.9566 30.3953 11.5563 29.9393 12.2132 29.5129V29.5141Z" fill="white" fill-opacity="0.2"/>
</g>
<defs>
<clipPath id="clip0_1456_53">
<rect width="43" height="38" fill="white"/>
</clipPath>
</defs>
</svg>
