<svg width="33" height="32" viewBox="0 0 33 32" fill="none" xmlns="http://www.w3.org/2000/svg">
<path d="M33 16C33 7.16344 25.6127 0 16.5 0C7.3873 0 0 7.16344 0 16C0 17.9191 0.349014 19.7591 0.987938 21.464C0.360229 22.5017 0 23.7099 0 25C0 28.5264 2.68924 31.4434 6.1875 31.9286V18.0718C5.15902 18.2145 4.20028 18.5669 3.35949 19.0836C3.18572 18.2487 3.09375 17.3848 3.09375 16.5C3.09375 9.32031 9.09595 3.5 16.5 3.5C23.9041 3.5 29.9062 9.32031 29.9062 16.5C29.9062 17.3848 29.8151 18.249 29.6413 19.0842C28.8002 18.5672 27.8414 18.214 26.8125 18.0712V31.9287C30.3106 31.4433 33 28.5264 33 25.0001C33 23.7103 32.6398 22.5022 32.0123 21.4646C32.6513 19.7594 33 17.9192 33 16Z" fill="white" fill-opacity="0.6"/>
</svg>
