<svg width="20" height="16" viewBox="0 0 20 16" fill="none" xmlns="http://www.w3.org/2000/svg">
<path d="M19.8008 4.00004C19.8008 4.00004 19.6052 2.62129 19.0039 2.01567C18.242 1.21879 17.3908 1.21504 17.0002 1.16817C14.2033 0.965042 10.0039 0.965042 10.0039 0.965042H9.99641C9.99641 0.965042 5.79703 0.965042 3.00016 1.16817C2.60953 1.21504 1.75828 1.21879 0.996406 2.01567C0.394531 2.62129 0.203281 4.00004 0.203281 4.00004C0.203281 4.00004 0.00390625 5.61754 0.00390625 7.23817V8.75379C0.00390625 10.3707 0.203281 11.9919 0.203281 11.9919C0.203281 11.9919 0.398906 13.3707 0.996406 13.9763C1.75828 14.7732 2.75828 14.7457 3.20328 14.8319C4.80516 14.9844 10.0039 15.0313 10.0039 15.0313C10.0039 15.0313 14.207 15.0238 17.0039 14.8244C17.3945 14.7775 18.2464 14.7738 19.0077 13.9769C19.6089 13.3713 19.8045 11.9925 19.8045 11.9925C19.8045 11.9925 20.0039 10.3757 20.0039 8.75442V7.23879C20.0002 5.62129 19.8008 4.00067 19.8008 4.00067V4.00004ZM7.93391 10.5938V4.97254L13.3364 7.79317L7.93391 10.5938Z" fill="black"/>
</svg>
